# xmcd CD database file
#
# Track frame offsets:
#	150
#	20163
#	36890
#	68131
#	79629
#	93349
#	108949
#	129494
#	148303
#	164946
#	175448
#	188947
#	207097
#	230875
#	244819
#	264393
#	283895
#	303096
#	316158
#	333392
#
# Disc length: 4725 seconds
#
# Revision: 0
# Processed by: cddbd v1.5.2PL0 Copyright (c) Steve Scherf et al.
# Submitted via: CDex 1.70beta2
#
DISCID=2d127314
DTITLE=Various Artist - Afrocarribean Jazz Encounter
DYEAR=2003
DGENRE=Jazz
TTITLE0=Chambo Silva y su Saxofon - Adoro
TTITLE1=Fran Ferrer - En Algun Lugar
TTITLE2=Batacumbele - Danzon Don Vazquez
TTITLE3=Luisito Benjamin - Maria Cervantes
TTITLE4=Noro Morales - Descarga A Las 12
TTITLE5=Pedro Guzman - Los Hijos De Sanches
TTITLE6=Kako, Totico - Trabuco Special
TTITLE7=Ricardo Ray - Parisian Thoroughfare
TTITLE8=Orq Panamericana - El Cumbanchero
TTITLE9=Chombo Silva - Cuando Estoy Contigo
TTITLE10=Lusito Benjamin - Bahia
TTITLE11=Julio Gitierrez - Yambambe
TTITLE12=Edwin Colon Zayas - Maria Cervantes
TTITLE13=Bobby Valentin - Caliente
TTITLE14=Willy Chirino - Africa
TTITLE15=Fran Ferrer - Maria Cervantes
TTITLE16=Qusque Domenech - Latin Dream
TTITLE17=Liti Pena y Orq Panamerica - Lady Bird
TTITLE18=Julio Guitierrez - Ruta 66
TTITLE19=Tito Rodriguez - Faggot's World
EXTD=YEAR: 2003
EXTT0=
EXTT1=
EXTT2=
EXTT3=
EXTT4=
EXTT5=
EXTT6=
EXTT7=
EXTT8=
EXTT9=
EXTT10=
EXTT11=
EXTT12=
EXTT13=
EXTT14=
EXTT15=
EXTT16=
EXTT17=
EXTT18=
EXTT19=
PLAYORDER=
